<svg xmlns="http://www.w3.org/2000/svg" viewBox="0 0 1258.37 263.07"><defs><style>.cls-1{fill:#fff;}.cls-2{fill:#ffcc70;}.cls-3{fill:#ccaa42;}.cls-4{fill:#f2f5ff;}.cls-5{fill:#bfbfbf;}</style></defs><g id="Layer_2" data-name="Layer 2"><g id="Layer_1-2" data-name="Layer 1"><path class="cls-1" d="M51.71,60.66a88.57,88.57,0,0,1,42.6,11.06v26Q70.78,83.54,52.57,83.53q-11.05,0-17.29,4.28a13.26,13.26,0,0,0-6.23,11.44q0,8.56,11.6,15.83,3.26,2.16,25,12.14Q84.34,136,92.57,146.73t8.24,25.8q0,19.51-14,31.49T50.41,216q-14.53,0-25-3.2T2,201.8V173q24.29,20.16,45.75,20.16,10.72,0,17.34-4.66a14.41,14.41,0,0,0,6.61-12.36q0-10.5-11.49-17.12-9.54-5.21-24.61-12.47-17.88-8.13-26.72-19A38.62,38.62,0,0,1,0,102.39Q0,83.33,14.2,72T51.71,60.66Z"/><path class="cls-1" d="M156.31,62.61V214H127V62.61Z"/><path class="cls-1" d="M219.62,62.61V191.17h73.49V214H190.35V62.61Z"/><path class="cls-1" d="M388.17,60.66q28,0,55.5,12.47V99.9q-27.53-14-54.19-14-16.59,0-29.49,6.61a47.5,47.5,0,0,0-20,19,54.84,54.84,0,0,0-7.1,27.7q0,23.2,15.45,37.34T389,190.74a72.17,72.17,0,0,0,13.28-1.19A90.65,90.65,0,0,0,417.44,185V159.85h-25V137h54.31v62.44a87.72,87.72,0,0,1-26.83,12.19,120,120,0,0,1-32.57,4.4q-24,0-43.42-9.87a73.81,73.81,0,0,1-41.24-67.31,75.62,75.62,0,0,1,11-40.22,74.61,74.61,0,0,1,30.68-28Q364,60.67,388.17,60.66Z"/><path class="cls-1" d="M555.54,60.66q23.52,0,42.33,9.7a76.3,76.3,0,0,1,41.14,68A76.14,76.14,0,0,1,598.2,206q-19,10-42.88,10-23.52,0-42.76-10.19a75,75,0,0,1-40.7-67.43,76.19,76.19,0,0,1,10.73-39.13A74.46,74.46,0,0,1,512.18,70.8Q531.05,60.66,555.54,60.66ZM502.1,138.38a53.94,53.94,0,0,0,6.83,27.1,47.48,47.48,0,0,0,19,18.65,56.93,56.93,0,0,0,27.59,6.61q23.31,0,38.32-14.64t15-37.72a54.64,54.64,0,0,0-6.77-27.15A46.88,46.88,0,0,0,583,92.53a61.12,61.12,0,0,0-55.39,0,46.37,46.37,0,0,0-18.92,18.65A55.32,55.32,0,0,0,502.1,138.38Z"/><path class="cls-1" d="M692.12,62.61l90,105.69V62.61h28.62V214H785.56L695.05,106.62V214H666.43V62.61Z"/><path class="cls-1" d="M941.87,62.61V85.48H873.26v39.79H939v22.87H873.26v43h70.13V214H844V62.61Z"/><polygon class="cls-2" points="1167.11 210.46 1258.24 157.84 1258.24 263.07 1167.11 210.46"/><polygon class="cls-2" points="1075.98 157.84 1167.11 105.22 1167.11 210.45 1075.98 157.84"/><polygon class="cls-2" points="984.85 210.29 1075.98 157.67 1075.98 262.9 984.85 210.29"/><polygon class="cls-3" points="1167.11 210.43 1075.98 157.81 1075.98 263.04 1167.11 210.43"/><polygon class="cls-4" points="984.98 105.23 1076.11 52.62 1076.11 157.84 984.98 105.23"/><polygon class="cls-5" points="1167.11 105.23 1075.98 52.62 1075.98 157.84 1167.11 105.23"/><polygon class="cls-5" points="1075.91 52.62 984.78 0 984.78 105.23 1075.91 52.62"/><polygon class="cls-4" points="1076.11 52.62 1167.24 0 1167.24 105.23 1076.11 52.62"/><polygon class="cls-5" points="1258.37 52.62 1167.24 0 1167.24 105.23 1258.37 52.62"/><polygon class="cls-3" points="1258.11 157.84 1166.98 105.23 1166.98 210.46 1258.11 157.84"/></g></g></svg>